<svg width="91" height="91" xmlns="http://www.w3.org/2000/svg">

 <g>
  <title>background</title>
  <rect fill="none" id="canvas_background" height="402" width="582" y="-1" x="-1"/>
 </g>
 <g>
  <title>Layer 1</title>
  <path fill="#ffff00" id="svg_2" d="m53.1,49.9l0,-14.5c0.8,1.1 1.3,2.4 1.3,3.8l0,8.2l3.4,0l0,-8.2c0,-4 -2.4,-7.5 -5.9,-9.1c1.4,-1.5 2.3,-3.5 2.3,-5.6c0,-4.5 -3.7,-8.2 -8.1,-8.2s-8.1,3.7 -8.1,8.2c0,2.2 0.9,4.2 2.3,5.6c-3.5,1.6 -5.9,5 -5.9,9.1l0,8.2l3.4,0l0,-8.2c0,-1.4 0.5,-2.7 1.3,-3.8l0,14.5c-9,1.4 -15.2,5.4 -16.3,10.3l-2.7,0l0,3.4l2.8,0c1.6,5.8 10.4,10.1 21.7,10.5l0,3.6l3.4,0l0,-3.6c11.3,-0.4 20.1,-4.8 21.7,-10.5l3,0l0,-3.4l-2.9,0c-1.5,-4.9 -7.7,-8.8 -16.7,-10.3zm-5.5,20.9l0,-1.8l-3.4,0l0,1.8c-7.9,-0.4 -16.2,-3.1 -18.1,-7.2l5.6,0l0,-3.4l-5.7,0c1.3,-3 6.3,-5.7 12.8,-6.9l0,7.7c0,2.4 2,4.4 4.4,4.4c0.5,0 1,-0.1 1.5,-0.3l0,-14.2l2.5,0l0,14.2c0.5,0.2 1,0.3 1.5,0.3c2.4,0 4.4,-2 4.4,-4.4l0,-7.6c6.5,1.2 11.5,3.8 12.8,6.9l-5.5,0l0,3.4l5.4,0c-2,3.9 -10.2,6.7 -18.2,7.1z"/>
 </g>
</svg>